<svg version="1.1" xmlns="http://www.w3.org/2000/svg" xmlns:xlink="http://www.w3.org/1999/xlink" x="0px" y="0px" viewBox="0 0 114 114" enable-background="new 0 0 114 114" xml:space="preserve" width="50" height="50">
				<path fill="#0000FF" d="M0,0h114v114H0V0z"></path>
				<g>
					<path fill="#FFFFFF" d="M18.5,14.8h-5.6v15.7c0,0.1,5.6,0.1,5.6,0.1c4.5,0,7.8-2.9,7.8-7.9S23,14.8,18.5,14.8z M18.5,27.7L16,27.8
						V17.7h2.5c2.6,0,4.7,1.6,4.7,5C23.2,26.1,21,27.7,18.5,27.7z"></path>
					<rect x="28.7" y="19.7" fill="#FFFFFF" width="3" height="10.9"></rect>
					<circle fill="#FFFFFF" cx="30.2" cy="16.1" r="1.8"></circle>
					<path fill="#FFFFFF" d="M42.3,19.8V21c-0.4-0.7-1.4-1.5-3.1-1.5c-3,0-5.1,2.4-5.1,5.3c0,3.1,2.2,5.3,5.1,5.3c1.6,0,2.6-0.7,3-1.4
						v0.8c0,2.1-1,3-2.9,3c-1.4,0-2.4-0.9-2.6-2.1l-2.6,0.8c0.3,2.1,2.3,4,5.3,4c4.1,0,5.7-2.7,5.7-5.7v-9.7H42.3z M39.7,27.6
						c-1.5,0-2.6-1.1-2.6-2.8s1.2-2.8,2.6-2.8c1.4,0,2.6,1.1,2.6,2.8C42.2,26.5,41.2,27.6,39.7,27.6z"></path>
					<rect x="48" y="19.7" fill="#FFFFFF" width="3" height="10.9"></rect>
					<circle fill="#FFFFFF" cx="49.5" cy="16.1" r="1.8"></circle>
					<path fill="#FFFFFF" d="M57.8,16.4h-2.7V18c0,1-0.5,1.7-1.7,1.7h-0.6v2.6h2v5.1c0,2.1,1.3,3.4,3.5,3.4c0.9,0,1.4-0.2,1.7-0.3V28
						c-0.2,0-0.6,0.1-0.9,0.1c-0.8,0-1.3-0.3-1.3-1.3v-4.6H60v-2.6h-2.2V16.4L57.8,16.4z"></path>
					<path fill="#FFFFFF" d="M71.6,28.9v-5.4c0-2.2-1.3-4.2-4.8-4.2c-2.9,0-4.5,1.9-4.7,3.6l2.6,0.6c0.1-1,0.8-1.8,2.1-1.8
						c1.2,0,1.8,0.6,1.8,1.4c0,0.4-0.2,0.7-0.8,0.8l-2.7,0.4c-1.7,0.3-3.2,1.4-3.2,3.3c0,1.7,1.4,3.3,3.8,3.3c1.6,0,2.7-0.8,3.2-1.6
						c0,0.4,0,1,0.1,1.3h2.7C71.6,30,71.6,29.4,71.6,28.9z M68.8,26.1c-0.1,2-1.2,2.6-2.5,2.6c-1,0-1.4-0.6-1.4-1.3
						c0-0.8,0.6-1.3,1.4-1.4l2.5-0.4V26.1z"></path>
					<polygon fill="#FFFFFF" points="77.5,30.6 77.5,14.5 74.5,14.5 74.5,30.6 77.5,30.6 	"></polygon>
				</g>
				<g>
					<path fill="#FFFFFF" d="M23.5,39.6c-0.4-1.8-1.8-4.1-5.6-4.1c-3,0-5.5,2.1-5.5,4.9c0,2.4,1.6,4,4.1,4.5l2.2,0.4
						c1.2,0.2,1.9,1,1.9,1.9c0,1.1-0.9,1.9-2.6,1.9c-2.2,0-3.3-1.4-3.4-3L11.8,47c0.2,2.2,2.1,4.9,6.3,4.9c3.7,0,5.7-2.4,5.7-4.9
						c0-2.2-1.5-4.1-4.4-4.6L17.1,42c-1.2-0.2-1.7-0.9-1.7-1.8c0-1,1-2,2.5-2c2,0,2.7,1.4,2.9,2.2C20.7,40.5,23.5,39.6,23.5,39.6z"></path>
					<path fill="#FFFFFF" d="M35.8,46c0-3.5-2-5.7-5.4-5.7c-2.8,0-5.4,2.3-5.4,5.8c0,3.7,2.6,5.8,5.6,5.8c2.7,0,4.4-1.6,5-3.5l-2.3-0.7
						c-0.4,1-1.1,1.7-2.5,1.7c-1.5,0-2.7-1-2.8-2.5h7.8C35.8,46.9,35.8,46.4,35.8,46z M28.1,44.9c0.1-1,0.9-2.2,2.4-2.2
						c1.7,0,2.4,1.1,2.4,2.2H28.1z"></path>
					<path fill="#FFFFFF" d="M44.9,40.6c-0.2,0-0.5,0-0.7,0c-0.9,0-2.4,0.3-3.1,1.7v-1.6h-2.9v10.9h3v-5c0-2.4,1.3-3.1,2.8-3.1
						c0.3,0,0.6,0,0.9,0.1V40.6L44.9,40.6z"></path>
					<path fill="#FFFFFF" d="M57.6,40.7h-3.1L51.9,48l-2.7-7.3H46l4.5,10.9h3C53.4,51.6,57.6,40.7,57.6,40.7z"></path>
					<rect x="59.4" y="40.7" fill="#FFFFFF" width="3" height="10.9"></rect>
					<circle fill="#FFFFFF" cx="60.8" cy="37.1" r="1.8"></circle>
					<path fill="#FFFFFF" d="M70.4,43.1c1.5,0,2.2,0.9,2.4,1.8l2.6-0.9c-0.5-1.8-2.2-3.7-5.1-3.7c-3.2,0-5.7,2.4-5.7,5.8
						c0,3.3,2.5,5.8,5.8,5.8c2.9,0,4.6-1.9,5.1-3.7l-2.6-0.9c-0.2,0.8-1,1.8-2.5,1.8S67.6,48,67.6,46C67.6,44.2,68.9,43.1,70.4,43.1
						L70.4,43.1z"></path>
					<g>
						<path fill="#FFFFFF" d="M87.2,48.4C87.2,48.4,87.2,48.4,87.2,48.4C87.2,48.4,87.2,48.4,87.2,48.4z"></path>
						<path fill="#FFFFFF" d="M87.4,46c0-3.5-2-5.7-5.4-5.7c-2.8,0-5.4,2.3-5.4,5.8c0,3.7,2.6,5.8,5.6,5.8c2.7,0,4.4-1.6,5-3.5
							c-0.2,0-2.3-0.7-2.3-0.7c-0.4,1-1.1,1.7-2.5,1.7c-1.5,0-2.7-1-2.8-2.5h7.8C87.4,46.9,87.4,46.4,87.4,46z M79.8,44.9
							c0.1-1,0.9-2.2,2.4-2.2c1.7,0,2.4,1.1,2.4,2.2H79.8z"></path>
					</g>
				</g>
				<rect x="11.8" y="14.3" fill="none" width="65.7" height="18"></rect>
				<rect x="11.8" y="38.5" fill="none" width="75.6" height="16.4"></rect>
			</svg>
